<svg id="Group_99599" data-name="Group 99599" xmlns="http://www.w3.org/2000/svg" xmlns:xlink="http://www.w3.org/1999/xlink" width="335.661" height="91.447" viewBox="0 0 335.661 91.447">
  <defs>
    <clipPath id="clip-path">
      <rect id="Rectangle_69960" data-name="Rectangle 69960" width="335.661" height="91.447" fill="none"/>
    </clipPath>
  </defs>
  <g id="Group_99599-2" data-name="Group 99599" clip-path="url(#clip-path)">
    <path id="Path_195249" data-name="Path 195249" d="M172.479,278.918h0c1.762,0,3.061-.341,3.061-2.008,0-1.48-1.2-1.945-3.061-1.945h-6v3.965Zm-.072-6.263h0c1.816,0,2.582-.425,2.582-1.607s-.78-1.67-2.582-1.67H166.48v3.276Zm-8.676-5.569h8.5c3.319,0,5.549.941,5.549,3.624a3.081,3.081,0,0,1-1.644,2.926,3.73,3.73,0,0,1,2.169,3.48c0,2.668-2.109,4.088-5.549,4.088H163.72Z" transform="translate(-116.748 -190.457)" fill="#6ab14a"/>
    <path id="Path_195250" data-name="Path 195250" d="M276.877,274.953c0,4.539-2.9,6.613-7.508,6.613s-7.488-2.074-7.488-6.613v-7.867h2.763v7.867c0,2.347.826,4.238,4.725,4.238s4.74-1.891,4.74-4.238v-7.867h2.769Z" transform="translate(-186.745 -190.457)" fill="#6ab14a"/>
    <rect id="Rectangle_69959" data-name="Rectangle 69959" width="2.763" height="14.119" transform="translate(109.618 76.629)" fill="#6ab14a"/>
    <path id="Path_195251" data-name="Path 195251" d="M463.04,267.086h2.751V278.76H476.04V281.2h-13Z" transform="translate(-330.191 -190.457)" fill="#6ab14a"/>
    <path id="Path_195252" data-name="Path 195252" d="M564.247,278.809h0c4.7,0,6.539-1.435,6.539-4.731,0-3.472-1.9-4.648-6.539-4.648h-2.789v9.379Zm-5.557-11.763h6.8c4.484,0,8.068,1.9,8.068,6.972,0,4.834-3.291,7.147-7.944,7.147h-6.92Z" transform="translate(-398.398 -190.429)" fill="#6ab14a"/>
    <path id="Path_195253" data-name="Path 195253" d="M662.92,269.459H656.6v-2.373h15.413v2.373h-6.338V281.2H662.92Z" transform="translate(-468.217 -190.457)" fill="#6ab14a"/>
    <path id="Path_195254" data-name="Path 195254" d="M759.84,267.086h12.676v2.373h-9.91v3.285h8.524V275.1h-8.524v3.733h10.125V281.2H759.84Z" transform="translate(-541.837 -190.457)" fill="#6ab14a"/>
    <path id="Path_195255" data-name="Path 195255" d="M869.37,276.521c-.267,1.569-1.4,5.377-7.881,5.377-4.467,0-8-2.482-8-7.649,0-4.094,2.605-7.173,8.194-7.173,6.312,0,7.264,4.114,7.46,4.857h-2.731c-.181-.476-1.265-2.485-4.559-2.485-3.9,0-5.54,2.2-5.54,5.138,0,3.242,2.35,4.949,5.368,4.949,3.216,0,4.656-1.931,4.926-3.01Z" transform="translate(-608.619 -190.45)" fill="#6ab14a"/>
    <path id="Path_195256" data-name="Path 195256" d="M953.85,267.086h2.786v5.595H966.1v-5.595h2.774V281.2H966.1v-6.074h-9.462V281.2H953.85Z" transform="translate(-680.185 -190.457)" fill="#6ab14a"/>
    <path id="Path_195257" data-name="Path 195257" d="M33.9.283h0V.266H0V44.137H5.7V26.922H33.9V26.9A13.31,13.31,0,0,0,33.9.283m-.287,20.944H5.7V5.981H33.6a7.617,7.617,0,0,1,0,15.235Z" transform="translate(0 -0.19)" fill="#223a82"/>
    <path id="Path_195258" data-name="Path 195258" d="M538.466,13.59h0A13.338,13.338,0,0,0,525.147.266H491.06V44.372h5.686V26.922H519.01L530.2,44.154h8.544L527.534,26.707A13.358,13.358,0,0,0,538.466,13.59m-13.516,7.626h-28.2V5.981h28.4a7.617,7.617,0,1,1,0,15.235Z" transform="translate(-350.172 -0.19)" fill="#223a82"/>
    <path id="Path_195259" data-name="Path 195259" d="M1043.567,23.72c-3.07-3.443-8.1-3.443-12.125-3.951-3.3-.416-5.939-.539-8.5-.646-1.917-.1-3.9-.186-6.174-.387-.333-.032-.671-.086-1.059-.095-8.1-.743-11.783-3.3-11.783-5.563,0-3.443,8.512-6.7,14.713-6.823h.086c14.219-.892,22.333,6.312,22.416,6.355l3.156-6.068c-.4-.287-9.944-7.437-26.077-6.45-3.578.095-20.594,1.093-20.594,13.028,0,10.042,11.494,11.08,17.676,11.623l1.044.095c2.378.227,4.433.341,6.432.419,2.559.115,4.992.227,8.082.625,1.684.212,6.7.826,8.707,3.09a3,3,0,0,1,.861,1.914,2.784,2.784,0,0,1-.821,1.721c-3.391,3.552-9.723,5.072-14.282,5.42a54.331,54.331,0,0,1-5.824.092,39.5,39.5,0,0,1-19.733-7.333l-3.188,6.025c6.415,4.992,15.964,7.5,22.568,7.824.763.032,1.532.057,2.321.057,1.343,0,2.706-.057,4.074-.172,5.887-.445,13.258-1.578,17.926-6.516a10.357,10.357,0,0,0,2.846-7.026,10.547,10.547,0,0,0-2.737-7.264" transform="translate(-710.655 0)" fill="#223a82"/>
    <path id="Path_195260" data-name="Path 195260" d="M744.308,9.771h0L761.6,31.392l-17.295-7.54L726.976,31.43Zm0-9.505L709.77,44.355,744.308,30.1l34.566,14.253Z" transform="translate(-506.133 -0.19)" fill="#223a82"/>
    <path id="Path_195261" data-name="Path 195261" d="M228.736,9.771h0l18.95,21.621-18.95-7.54L209.7,31.43Zm0-9.505L192.5,44.355,228.736,30.1l36.208,14.253Z" transform="translate(-137.271 -0.19)" fill="#223a82"/>
  </g>
</svg>
